<?xml version="1.0" encoding="iso-8859-1"?>
<!-- Generator: Adobe Illustrator 19.0.0, SVG Export Plug-In . SVG Version: 6.00 Build 0)  -->
<svg version="1.1" id="Layer_1" xmlns="http://www.w3.org/2000/svg" xmlns:xlink="http://www.w3.org/1999/xlink" x="0px" y="0px"
	 viewBox="0 0 512 512" style="enable-background:new 0 0 512 512;" xml:space="preserve">
<g>
	<g>
		<g>
			<path style="fill:#010101;" d="M435.525,0H76.475C64.542,0,54.78,9.763,54.78,21.695v468.61c0,11.932,9.763,21.695,21.695,21.695
				c11.932,0,21.695-9.763,21.695-21.695V43.39H323.1L204.475,90.034c-7.593,3.254-13.017,10.847-13.017,19.525v292.881
				c0,8.678,4.339,16.271,13.017,19.525l223.458,87.864c2.169,1.085,5.424,1.085,7.593,1.085c0.46,0,0.916-0.017,1.369-0.043
				c0.207-0.011,0.412-0.026,0.618-0.042c0.173-0.014,0.344-0.031,0.516-0.049c3.469-0.338,6.803-1.37,9.429-3.12
				c4.437-2.219,7.359-6.455,8.771-10.988c0.005-0.015,0.01-0.03,0.015-0.045c0.023-0.073,0.043-0.146,0.065-0.22
				c0.59-1.908,0.912-3.951,0.912-6.103V21.695v0C457.22,9.763,447.458,0,435.525,0z M233.763,123.661l180.068-70.086v404.85
				l-180.068-70.086V123.661z"/>
			<path style="fill:#010101;" d="M280.407,232.136c-11.932,0-21.695,9.763-21.695,21.695V256c0,11.932,9.763,21.695,21.695,21.695
				s21.695-8.678,21.695-21.695v-2.169C302.102,241.898,292.339,232.136,280.407,232.136z"/>
		</g>
	</g>
</g>
<g>
</g>
<g>
</g>
<g>
</g>
<g>
</g>
<g>
</g>
<g>
</g>
<g>
</g>
<g>
</g>
<g>
</g>
<g>
</g>
<g>
</g>
<g>
</g>
<g>
</g>
<g>
</g>
<g>
</g>
</svg>
